<svg xmlns="http://www.w3.org/2000/svg" viewBox="0 0 48 48">
  <path d="M20.925781 8.0019531C18.981606 8.0019531 17.111306 8.7571988 15.712891 10.109375L5.8046875 19.685547C3.3789889 22.030389 3.3789889 25.969611 5.8046875 28.314453L15.712891 37.892578C17.110904 39.243116 18.981581 40.000704 20.925781 40.001953L37.5 40.001953C41.071938 40.001953 44 37.073891 44 33.501953L44 14.501953C44 10.930015 41.071938 8.0019531 37.5 8.0019531L20.925781 8.0019531 z M 20.925781 11.001953L37.5 11.001953C39.450062 11.001953 41 12.551891 41 14.501953L41 33.501953C41 35.452015 39.450062 37.001953 37.5 37.001953L20.927734 37.001953L20.925781 37.001953C19.758684 37.000653 18.638347 36.545385 17.798828 35.734375L17.798828 35.736328L7.8886719 26.158203C6.6543705 24.965045 6.6543705 23.036908 7.8886719 21.84375L17.798828 12.265625C18.638413 11.453801 19.757956 11.001953 20.925781 11.001953 z M 34.486328 15.978516 A 1.50015 1.50015 0 0 0 33.439453 16.439453L28 21.878906L22.560547 16.439453 A 1.50015 1.50015 0 0 0 21.484375 15.984375 A 1.50015 1.50015 0 0 0 20.439453 18.560547L25.878906 24L20.439453 29.439453 A 1.50015 1.50015 0 1 0 22.560547 31.560547L28 26.121094L33.439453 31.560547 A 1.50015 1.50015 0 1 0 35.560547 29.439453L30.121094 24L35.560547 18.560547 A 1.50015 1.50015 0 0 0 34.486328 15.978516 z" fill="#FFFFFF" />
</svg>